<svg width="50" height="50" viewBox="0 0 50 50" fill="none" xmlns="http://www.w3.org/2000/svg">
<g clip-path="url(#clip0_135_731)">
<path d="M8.85417 4.03008e-06H41.1458C42.3089 -0.00112026 43.4607 0.233004 44.5355 0.688979C45.6102 1.14495 46.5867 1.81383 47.4091 2.65732C48.2315 3.50081 48.8837 4.50236 49.3283 5.60465C49.7728 6.70694 50.0011 7.88832 50 9.0812V40.9188C50.0011 42.1117 49.7728 43.2931 49.3283 44.3954C48.8837 45.4976 48.2315 46.4992 47.4091 47.3427C46.5867 48.1862 45.6102 48.8551 44.5355 49.311C43.4607 49.767 42.3089 50.0011 41.1458 50H8.85417C7.69112 50.0011 6.53926 49.767 5.46453 49.311C4.3898 48.8551 3.41329 48.1862 2.59088 47.3427C1.76848 46.4992 1.11633 45.4976 0.671755 44.3954C0.227179 43.2931 -0.00109226 42.1117 3.92933e-06 40.9188V9.0812C-0.00109226 7.88832 0.227179 6.70694 0.671755 5.60465C1.11633 4.50236 1.76848 3.50081 2.59088 2.65732C3.41329 1.81383 4.3898 1.14495 5.46453 0.688979C6.53926 0.233004 7.69112 -0.00112026 8.85417 4.03008e-06V4.03008e-06Z" fill="#F9FAFB"/>
<path d="M24.2289 30H16.4789L14.8955 35.0214C14.8779 35.1129 14.8274 35.1943 14.7542 35.2497C14.681 35.305 14.5902 35.3303 14.4997 35.3205H10.583C10.3539 35.3205 10.2914 35.1923 10.3539 34.9359L17.0622 15.1282C17.1247 14.9145 17.1872 14.6795 17.2705 14.4231C17.3544 13.9651 17.3962 13.5001 17.3955 13.0342C17.3893 12.9807 17.403 12.9267 17.4339 12.8831C17.4648 12.8395 17.5107 12.8095 17.5622 12.7991H22.958C23.1247 12.7991 23.208 12.8632 23.2289 12.9701L30.833 34.9786C30.8955 35.2137 30.833 35.3205 30.6247 35.3205H26.2705C26.1969 35.3278 26.1231 35.3082 26.0622 35.2652C26.0012 35.2222 25.957 35.1586 25.9372 35.0855L24.2289 30ZM17.6872 25.6624H22.9789C22.8539 25.2137 22.6872 24.6795 22.4997 24.1239C22.3122 23.5684 22.1247 22.9273 21.9372 22.2863C21.7497 21.6453 21.5414 20.9829 21.333 20.3205C21.1247 19.6581 20.9372 19.0384 20.7705 18.4188C20.6039 17.7991 20.458 17.2649 20.3122 16.7521H20.2705C20.0833 17.6834 19.8469 18.6036 19.5622 19.5085C19.2497 20.5342 18.9372 21.6026 18.6039 22.6709C18.3122 23.7607 17.9997 24.7649 17.6872 25.6624V25.6624Z" fill="#1B1B1B"/>
<path d="M35.3746 16.453C35.0326 16.4607 34.6926 16.3985 34.3743 16.2701C34.056 16.1417 33.7657 15.9497 33.5204 15.7051C33.0431 15.1699 32.7889 14.4643 32.8121 13.7393C32.7998 13.3861 32.8602 13.0341 32.9895 12.7065C33.1187 12.3788 33.3138 12.0827 33.5621 11.8376C34.0629 11.3522 34.7273 11.0842 35.4163 11.0897C36.2288 11.0897 36.8538 11.3462 37.3121 11.8376C37.7736 12.3557 38.0202 13.0378 37.9996 13.7393C38.0123 14.1003 37.9543 14.4603 37.8291 14.7979C37.7039 15.1356 37.5139 15.4441 37.2704 15.7051C37.025 15.9616 36.7287 16.161 36.4017 16.2901C36.0746 16.4191 35.7244 16.4746 35.3746 16.453V16.453ZM33.0413 35V18.547C33.0413 18.3333 33.1246 18.2479 33.3121 18.2479H37.4371C37.6246 18.2479 37.7079 18.3547 37.7079 18.547V35C37.7079 35.235 37.6246 35.3419 37.4371 35.3419H33.3538C33.31 35.3456 33.266 35.3391 33.225 35.3229C33.184 35.3067 33.1471 35.2812 33.117 35.2483C33.087 35.2155 33.0646 35.1761 33.0514 35.1331C33.0383 35.0901 33.0349 35.0446 33.0413 35V35Z" fill="#1B1B1B"/>
</g>
<defs>
<clipPath id="clip0_135_731">
<rect width="50" height="50" fill="white"/>
</clipPath>
</defs>
</svg>
