<svg width="40" height="40" viewBox="0 0 40 40" fill="none" xmlns="http://www.w3.org/2000/svg">
<path d="M12.9815 9.00577C13.8822 8.98905 14.7816 9.08139 15.6601 9.28077C16.3997 9.44226 17.102 9.74275 17.7295 10.1663C18.309 10.5874 18.7676 11.1537 19.0591 11.8081C19.3942 12.6128 19.5558 13.4791 19.5335 14.3505C19.5716 15.3073 19.3272 16.2541 18.8309 17.073C18.3087 17.8464 17.587 18.4641 16.7422 18.8606C17.8886 19.1696 18.8872 19.8776 19.5583 20.8571C20.2025 21.895 20.5263 23.0998 20.4892 24.3208C20.5104 25.2943 20.3091 26.2598 19.9007 27.1437C19.5231 27.9148 18.9702 28.5868 18.2864 29.1058C17.5823 29.6192 16.79 29.9991 15.9488 30.2265C15.0765 30.4678 14.1754 30.589 13.2703 30.5867H3.33301V9.00577H12.9815ZM12.4082 17.7344C13.1158 17.7636 13.8124 17.5517 14.3841 17.1335C14.6578 16.8898 14.8708 16.5855 15.0059 16.2448C15.141 15.9041 15.1946 15.5365 15.1623 15.1714C15.1806 14.745 15.0957 14.3204 14.9148 13.9338C14.7614 13.6261 14.5227 13.3688 14.2273 13.1927C13.9281 12.9989 13.5919 12.8692 13.24 12.8118C12.8582 12.7379 12.4697 12.7042 12.0809 12.7115H7.83483V17.7537H12.4082V17.7344ZM12.6557 26.9223C13.0836 26.9281 13.5107 26.8819 13.9276 26.7848C14.3085 26.7007 14.6698 26.5443 14.9918 26.3242C15.3073 26.1042 15.5622 25.8081 15.733 25.4634C15.9309 25.0239 16.0219 24.5437 15.9983 24.0623C16.0413 23.6235 15.9831 23.1808 15.8285 22.768C15.6738 22.3551 15.4266 21.9832 15.106 21.6807C14.4263 21.1801 13.5933 20.9321 12.7505 20.9795H7.83483V26.9223H12.6557Z" fill="#F9FAFB"/>
<path d="M26.9009 26.8426C27.2542 27.1701 27.6704 27.4224 28.1243 27.584C28.5781 27.7457 29.0601 27.8134 29.5409 27.7831C30.3031 27.8024 31.0506 27.5705 31.6681 27.1231C32.1704 26.7965 32.5508 26.3131 32.7502 25.7481H36.3404C35.9579 27.3566 35.0237 28.7802 33.7003 29.7714C32.4308 30.614 30.9305 31.0408 29.4075 30.9924C28.3205 31.0067 27.2418 30.8023 26.2353 30.3915C25.3249 30.0118 24.5084 29.4379 23.8428 28.7099C23.1797 27.947 22.6703 27.0631 22.3427 26.107C21.9748 25.0382 21.7948 23.9137 21.8105 22.7835C21.8038 21.6723 21.9899 20.5683 22.3605 19.5206C22.8584 18.0467 23.8105 16.7685 25.08 15.8693C26.3495 14.9701 27.8712 14.4962 29.4268 14.5155C30.5752 14.4915 31.7109 14.7603 32.7268 15.2965C33.6451 15.8001 34.4373 16.5053 35.0437 17.3591C35.6641 18.255 36.1088 19.2605 36.3541 20.3222C36.6232 21.4624 36.7192 22.6365 36.6388 23.8052H25.9452C25.8586 24.9032 26.2011 25.992 26.9009 26.8426V26.8426ZM31.5924 18.6351C31.2932 18.3358 30.9333 18.1041 30.5369 17.9556C30.1406 17.8071 29.717 17.7453 29.2948 17.7743C28.7346 17.753 28.1784 17.8771 27.6805 18.1346C27.2857 18.3519 26.9373 18.6443 26.6547 18.9953C26.4043 19.3245 26.2178 19.6976 26.1047 20.0954C26.0028 20.4271 25.9392 20.7694 25.915 21.1156H32.5384C32.4807 20.2131 32.152 19.3491 31.5952 18.6365L31.5924 18.6351Z" fill="#F9FAFB"/>
<path d="M33.3612 10.4468H25.0615V12.5684H33.3612V10.4468Z" fill="#F9FAFB"/>
</svg>
