<svg width="50" height="50" viewBox="0 0 50 50" fill="none" xmlns="http://www.w3.org/2000/svg">
<path d="M8.85417 4.03008e-06H41.1458C42.3089 -0.00112026 43.4607 0.233004 44.5355 0.688979C45.6102 1.14495 46.5867 1.81383 47.4091 2.65732C48.2315 3.50081 48.8837 4.50236 49.3283 5.60465C49.7728 6.70693 50.0011 7.88832 50 9.0812V40.9188C50.0011 42.1117 49.7728 43.2931 49.3283 44.3953C48.8837 45.4976 48.2315 46.4992 47.4091 47.3427C46.5867 48.1862 45.6102 48.855 44.5355 49.311C43.4607 49.767 42.3089 50.0011 41.1458 50H8.85417C7.69112 50.0011 6.53926 49.767 5.46453 49.311C4.3898 48.855 3.41329 48.1862 2.59088 47.3427C1.76848 46.4992 1.11633 45.4976 0.671755 44.3953C0.227179 43.2931 -0.00109226 42.1117 3.92932e-06 40.9188V9.0812C-0.00109226 7.88832 0.227179 6.70693 0.671755 5.60465C1.11633 4.50236 1.76848 3.50081 2.59088 2.65732C3.41329 1.81383 4.3898 1.14495 5.46453 0.688979C6.53926 0.233004 7.69112 -0.00112026 8.85417 4.03008e-06Z" fill="#F9FAFB"/>
<g clip-path="url(#clip0_135_797)">
<path d="M37.0969 14.073L34.8928 39.1463L24.9853 41.9355L15.1051 39.1503L12.9033 14.073H37.0969Z" fill="#1B1B1B"/>
<path d="M18.5967 7.25806H22.2651V8.81583H20.1307V10.3736H22.2651V11.9314H18.5967V7.25806Z" fill="#1B1B1B"/>
<path d="M22.999 7.25806H26.6674V8.61264H24.5331V8.88356H26.6674V11.9991H22.999V10.5768H25.1334V10.3059H22.999V7.25806Z" fill="#1B1B1B"/>
<path d="M27.4014 7.25806H31.0697V8.61264H28.9354V8.88356H31.0697V11.9991H27.4014V10.5768H29.5357V10.3059H27.4014V7.25806Z" fill="#1B1B1B"/>
<path d="M32.5765 19.1987L32.0296 25.4239L31.9562 26.2502L31.2442 34.3472L31.1984 34.8671L24.9997 36.6119L24.9863 36.6162L18.7818 34.8671L18.3574 30.038H21.398L21.6139 32.4906L24.9863 33.4151L24.9896 33.4143L24.9997 33.4117L28.3679 32.4889L28.7189 28.4997H18.2223L17.9505 25.4239H28.9815L29.2575 22.2745H17.6804L17.4053 19.1987H32.5765Z" fill="#F9FAFB"/>
<path d="M25.0002 19.1987H24.9902V22.2745H25.0002V19.1987Z" fill="#F9FAFB"/>
</g>
<defs>
<clipPath id="clip0_135_797">
<rect width="24.1935" height="34.6774" fill="white" transform="translate(12.9033 7.25806)"/>
</clipPath>
</defs>
</svg>
