<svg width="50" height="50" viewBox="0 0 50 50" fill="none" xmlns="http://www.w3.org/2000/svg">
<path d="M8.85417 4.03008e-06H41.1458C42.3089 -0.00112026 43.4607 0.233004 44.5355 0.688979C45.6102 1.14495 46.5867 1.81383 47.4091 2.65732C48.2315 3.50081 48.8837 4.50236 49.3283 5.60465C49.7728 6.70693 50.0011 7.88832 50 9.0812V40.9188C50.0011 42.1117 49.7728 43.2931 49.3283 44.3953C48.8837 45.4976 48.2315 46.4992 47.4091 47.3427C46.5867 48.1862 45.6102 48.855 44.5355 49.311C43.4607 49.767 42.3089 50.0011 41.1458 50H8.85417C7.69112 50.0011 6.53926 49.767 5.46453 49.311C4.3898 48.855 3.41329 48.1862 2.59088 47.3427C1.76848 46.4992 1.11633 45.4976 0.671755 44.3953C0.227179 43.2931 -0.00109226 42.1117 3.92932e-06 40.9188V9.0812C-0.00109226 7.88832 0.227179 6.70693 0.671755 5.60465C1.11633 4.50236 1.76848 3.50081 2.59088 2.65732C3.41329 1.81383 4.3898 1.14495 5.46453 0.688979C6.53926 0.233004 7.69112 -0.00112026 8.85417 4.03008e-06Z" fill="#F9FAFB"/>
<path d="M25.0039 25.4031C25.0039 24.2268 25.4712 23.0986 26.303 22.2668C27.1348 21.435 28.263 20.9677 29.4394 20.9677C30.6158 20.9677 31.7439 21.435 32.5757 22.2668C33.4076 23.0986 33.8749 24.2268 33.8749 25.4031C33.8749 26.5795 33.4076 27.7077 32.5757 28.5395C31.7439 29.3713 30.6158 29.8386 29.4394 29.8386C28.263 29.8386 27.1348 29.3713 26.303 28.5395C25.4712 27.7077 25.0039 26.5795 25.0039 25.4031V25.4031Z" stroke="#1E1E1E" stroke-width="3"/>
<path d="M16.1328 34.2741C16.1328 33.0977 16.6001 31.9696 17.4319 31.1377C18.2637 30.3059 19.3919 29.8386 20.5683 29.8386H25.0038V34.2741C25.0038 35.4505 24.5365 36.5787 23.7047 37.4105C22.8728 38.2423 21.7447 38.7096 20.5683 38.7096C19.3919 38.7096 18.2637 38.2423 17.4319 37.4105C16.6001 36.5787 16.1328 35.4505 16.1328 34.2741Z" stroke="#1E1E1E" stroke-width="3"/>
<path d="M25.0039 12.0967V20.9676H29.4394C30.6158 20.9676 31.7439 20.5003 32.5757 19.6685C33.4076 18.8367 33.8749 17.7085 33.8749 16.5322C33.8749 15.3558 33.4076 14.2276 32.5757 13.3958C31.7439 12.564 30.6158 12.0967 29.4394 12.0967H25.0039Z" stroke="#1E1E1E" stroke-width="3"/>
<path d="M16.1328 16.5322C16.1328 17.7085 16.6001 18.8367 17.4319 19.6685C18.2637 20.5003 19.3919 20.9676 20.5683 20.9676H25.0038V12.0967H20.5683C19.3919 12.0967 18.2637 12.564 17.4319 13.3958C16.6001 14.2276 16.1328 15.3558 16.1328 16.5322Z" stroke="#1E1E1E" stroke-width="3"/>
<path d="M16.1328 25.4031C16.1328 26.5795 16.6001 27.7077 17.4319 28.5395C18.2637 29.3713 19.3919 29.8386 20.5683 29.8386H25.0038V20.9677H20.5683C19.3919 20.9677 18.2637 21.435 17.4319 22.2668C16.6001 23.0986 16.1328 24.2268 16.1328 25.4031Z" stroke="#1E1E1E" stroke-width="3"/>
</svg>
