<svg width="50" height="50" viewBox="0 0 50 50" fill="none" xmlns="http://www.w3.org/2000/svg">
<path d="M8.85417 3.96611e-06H41.1458C42.3089 -0.00110248 43.4607 0.229306 44.5355 0.678043C45.6102 1.12678 46.5867 1.78504 47.4091 2.61514C48.2315 3.44524 48.8837 4.43089 49.3282 5.51568C49.7728 6.60048 50.0011 7.76311 50 8.93705V40.2693C50.0011 41.4432 49.7728 42.6059 49.3282 43.6907C48.8837 44.7755 48.2315 45.7611 47.4091 46.5912C46.5867 47.4213 45.6102 48.0796 44.5355 48.5283C43.4607 48.977 42.3089 49.2075 41.1458 49.2063H8.85417C7.69112 49.2075 6.53926 48.977 5.46453 48.5283C4.3898 48.0796 3.41329 47.4213 2.59088 46.5912C1.76848 45.7611 1.11633 44.7755 0.671755 43.6907C0.227179 42.6059 -0.00109226 41.4432 3.92932e-06 40.2693V8.93705C-0.00109226 7.76311 0.227179 6.60048 0.671755 5.51568C1.11633 4.43089 1.76848 3.44524 2.59088 2.61514C3.41329 1.78504 4.3898 1.12678 5.46453 0.678043C6.53926 0.229306 7.69112 -0.00110248 8.85417 3.96611e-06V3.96611e-06Z" fill="#F9FAFB"/>
<g clip-path="url(#clip0_135_786)">
<path fill-rule="evenodd" clip-rule="evenodd" d="M30.9272 37.7722C31.8453 38.6059 32.6869 40.2337 32.6869 42.6951C32.6869 46.2682 32.6487 49.1266 32.6487 50H19.8712C19.8712 49.3648 19.8329 47.6974 19.8329 45.4742C12.6791 47.1019 11.1871 41.9011 11.1871 41.9011C10.0394 38.8044 8.31792 38.0104 8.31792 38.0104C5.9843 36.343 8.5092 36.3827 8.5092 36.3827C11.0723 36.5812 12.4496 39.122 12.4496 39.122C14.7449 43.2112 18.4557 42.0202 19.9477 41.3453C20.1773 39.6382 20.8276 38.4471 21.5927 37.7722C15.8543 37.137 9.84815 34.8344 9.84815 24.6313C9.84815 21.7331 10.8428 19.3511 12.4878 17.4852C12.22 16.8102 11.3401 14.1106 12.7556 10.4184C12.7556 10.4184 14.8979 9.70381 19.8329 13.1578C21.8988 12.5623 24.0794 12.2844 26.2599 12.2447C28.4405 12.2447 30.6594 12.5226 32.6869 13.1181C37.5837 9.66411 39.7643 10.3787 39.7643 10.3787C41.1798 14.0709 40.2999 16.7705 40.0321 17.4454C41.6771 19.3114 42.6717 21.6934 42.6717 24.5916C42.6717 34.8741 36.6273 37.137 30.9272 37.7722Z" fill="#221E1B"/>
</g>
<defs>
<clipPath id="clip0_135_786">
<rect width="38.7097" height="39.6825" fill="white" transform="translate(5.64551 10.3175)"/>
</clipPath>
</defs>
</svg>
