<svg width="50" height="50" viewBox="0 0 50 50" fill="none" xmlns="http://www.w3.org/2000/svg">
<path d="M8.85417 4.03008e-06H41.1458C42.3089 -0.00112026 43.4607 0.233004 44.5355 0.688979C45.6102 1.14495 46.5867 1.81383 47.4091 2.65732C48.2315 3.50081 48.8837 4.50236 49.3283 5.60465C49.7728 6.70693 50.0011 7.88832 50 9.0812V40.9188C50.0011 42.1117 49.7728 43.2931 49.3283 44.3953C48.8837 45.4976 48.2315 46.4992 47.4091 47.3427C46.5867 48.1862 45.6102 48.855 44.5355 49.311C43.4607 49.767 42.3089 50.0011 41.1458 50H8.85417C7.69112 50.0011 6.53926 49.767 5.46453 49.311C4.3898 48.855 3.41329 48.1862 2.59088 47.3427C1.76848 46.4992 1.11633 45.4976 0.671755 44.3953C0.227179 43.2931 -0.00109226 42.1117 3.92932e-06 40.9188V9.0812C-0.00109226 7.88832 0.227179 6.70693 0.671755 5.60465C1.11633 4.50236 1.76848 3.50081 2.59088 2.65732C3.41329 1.81383 4.3898 1.14495 5.46453 0.688979C6.53926 0.233004 7.69112 -0.00112026 8.85417 4.03008e-06Z" fill="#F9FAFB"/>
<g clip-path="url(#clip0_135_780)">
<path d="M15.4062 7.25806H16.964V8.80229H18.3999V7.25806H19.9577V11.9314H18.3999V10.3736H16.9776V11.9314H15.4062V7.25806ZM22.0166 8.81583H20.6417V7.25806H24.9561V8.81583H23.5744V11.9314H22.0166V8.81583ZM25.6402 7.25806H27.2724L28.2748 8.90388L29.2772 7.25806H30.9095V11.9314H29.3517V9.61504L28.2613 11.2947L27.1708 9.61504V11.9314H25.6402V7.25806ZM31.6816 7.25806H33.2394V10.3872H35.4474V11.9314H31.6816" fill="#1B1B1B"/>
<path d="M15.3523 39.1586L13.1172 14.0717H37.6894L35.4543 39.1451L25.383 41.9355" fill="#1B1B1B"/>
<path d="M21.0546 22.2736L21.339 25.4231H32.5347L31.6881 34.8645L25.4028 36.6079V36.6255L19.0904 34.8645L18.6569 30.0354H21.7454L21.9621 32.494L25.396 33.4131L28.8231 32.494L29.1821 28.498H25.3892V28.4912H18.5215L17.6816 19.1987H33.0968L32.8124 22.2736H21.0546Z" fill="#F9FAFB"/>
</g>
<defs>
<clipPath id="clip0_135_780">
<rect width="34.6774" height="34.6774" fill="white" transform="translate(8.06445 7.25806)"/>
</clipPath>
</defs>
</svg>
