<svg width="50" height="50" viewBox="0 0 50 50" fill="none" xmlns="http://www.w3.org/2000/svg">
<path d="M8.85417 4.03008e-06H41.1458C42.3089 -0.00112026 43.4607 0.233004 44.5355 0.688979C45.6102 1.14495 46.5867 1.81383 47.4091 2.65732C48.2315 3.50081 48.8837 4.50236 49.3283 5.60465C49.7728 6.70694 50.0011 7.88832 50 9.0812V40.9188C50.0011 42.1117 49.7728 43.2931 49.3283 44.3954C48.8837 45.4976 48.2315 46.4992 47.4091 47.3427C46.5867 48.1862 45.6102 48.855 44.5355 49.311C43.4607 49.767 42.3089 50.0011 41.1458 50H8.85417C7.69112 50.0011 6.53926 49.767 5.46453 49.311C4.3898 48.855 3.41329 48.1862 2.59088 47.3427C1.76848 46.4992 1.11633 45.4976 0.671755 44.3954C0.227179 43.2931 -0.00109226 42.1117 3.92932e-06 40.9188V9.0812C-0.00109226 7.88832 0.227179 6.70694 0.671755 5.60465C1.11633 4.50236 1.76848 3.50081 2.59088 2.65732C3.41329 1.81383 4.3898 1.14495 5.46453 0.688979C6.53926 0.233004 7.69112 -0.00112026 8.85417 4.03008e-06Z" fill="#F9FAFB"/>
<path d="M28.1688 29.9197C29.0815 31.4996 30.2673 32.6597 32.3658 32.6597C34.1265 32.6597 35.2548 31.7209 35.2548 30.431C35.2548 28.8817 34.0978 28.3322 32.1574 27.4316L31.0938 26.9431C28.0251 25.554 25.9841 23.8138 25.9841 20.1351C25.9841 16.7463 28.4132 14.1666 32.2149 14.1666C34.917 14.1666 36.8646 15.1665 38.266 17.7843L34.953 20.0435C34.2271 18.6544 33.4366 18.1049 32.2149 18.1049C30.9716 18.1049 30.1811 18.9444 30.1811 20.0435C30.1811 21.402 30.9716 21.9516 32.797 22.7911L33.8606 23.272C37.4755 24.9205 39.5164 26.5996 39.5164 30.37C39.5164 34.438 36.5053 36.6666 32.4664 36.6666C28.5138 36.6666 25.9625 34.667 24.7121 32.0491L28.1688 29.9197ZM13.1417 30.3089C13.81 31.5683 14.4209 32.6291 15.8798 32.6291C17.2811 32.6291 18.1579 32.0491 18.1579 29.7899V14.4338H22.4124V29.8586C22.4124 34.5372 19.8324 36.6666 16.0594 36.6666C12.653 36.6666 10.6767 34.7967 9.67773 32.5376L13.1417 30.3089Z" fill="#1B1B1B"/>
</svg>
