<svg width="50" height="50" viewBox="0 0 50 50" fill="none" xmlns="http://www.w3.org/2000/svg">
<g clip-path="url(#clip0_135_730)">
<path d="M8.85417 4.03008e-06H41.1458C42.3089 -0.00112026 43.4607 0.233004 44.5355 0.688979C45.6102 1.14495 46.5867 1.81383 47.4091 2.65732C48.2315 3.50081 48.8837 4.50236 49.3283 5.60465C49.7728 6.70694 50.0011 7.88832 50 9.0812V40.9188C50.0011 42.1117 49.7728 43.2931 49.3283 44.3954C48.8837 45.4976 48.2315 46.4992 47.4091 47.3427C46.5867 48.1862 45.6102 48.8551 44.5355 49.311C43.4607 49.767 42.3089 50.0011 41.1458 50H8.85417C7.69112 50.0011 6.53926 49.767 5.46453 49.311C4.3898 48.8551 3.41329 48.1862 2.59088 47.3427C1.76848 46.4992 1.11633 45.4976 0.671755 44.3954C0.227179 43.2931 -0.00109226 42.1117 3.92933e-06 40.9188V9.0812C-0.00109226 7.88832 0.227179 6.70694 0.671755 5.60465C1.11633 4.50236 1.76848 3.50081 2.59088 2.65732C3.41329 1.81383 4.3898 1.14495 5.46453 0.688979C6.53926 0.233004 7.69112 -0.00112026 8.85417 4.03008e-06V4.03008e-06Z" fill="#F9FAFB"/>
<path d="M11.25 35.0641V13.0769C11.25 12.9274 11.3125 12.8419 11.4583 12.8419C11.8125 12.8419 12.1458 12.8419 12.625 12.8205C13.1042 12.7992 13.6458 12.7992 14.2083 12.7778C14.7708 12.7564 15.375 12.7564 16.0208 12.7351C16.6667 12.7137 17.2917 12.7137 17.9167 12.7137C19.625 12.7137 21.0417 12.9274 22.2083 13.3761C23.2542 13.7403 24.2078 14.3389 25 15.1282C25.6713 15.819 26.19 16.6497 26.5208 17.5641C26.8362 18.4546 26.9983 19.3945 27 20.3419C27 22.1795 26.5833 23.6966 25.75 24.8932C24.9128 26.0881 23.7439 26.9966 22.3958 27.5C20.9792 28.0342 19.4167 28.2265 17.7083 28.2265C17.2083 28.2265 16.875 28.2265 16.6667 28.2051C16.4583 28.1838 16.1667 28.1838 15.7708 28.1838V35.0427C15.7755 35.0779 15.7732 35.1137 15.7641 35.1479C15.755 35.1821 15.7394 35.2142 15.718 35.2421C15.6966 35.27 15.67 35.2932 15.6397 35.3103C15.6094 35.3275 15.5761 35.3382 15.5417 35.3419H11.5C11.3333 35.3419 11.25 35.2564 11.25 35.0641ZM15.7917 16.9658V24.1453C16.0833 24.1667 16.3542 24.188 16.6042 24.188H17.7083C18.5216 24.189 19.3301 24.0593 20.1042 23.8034C20.7683 23.6031 21.3617 23.2098 21.8125 22.6709C22.25 22.1368 22.4583 21.4103 22.4583 20.4701C22.4779 19.8024 22.3117 19.1428 21.9792 18.5684C21.6318 18.0136 21.1209 17.5869 20.5208 17.3504C19.7387 17.0363 18.9019 16.8908 18.0625 16.9231C17.5208 16.9231 17.0417 16.9231 16.6458 16.9445C16.3611 16.9254 16.0752 16.9325 15.7917 16.9658V16.9658Z" fill="#1B1B1B"/>
<path d="M40 22.8419C39.371 22.5021 38.6973 22.2574 38 22.1154C37.2341 21.9375 36.4519 21.8444 35.6667 21.8376C35.245 21.8227 34.8236 21.8731 34.4167 21.9872C34.1572 22.0426 33.927 22.1949 33.7708 22.4145C33.6656 22.5879 33.608 22.7872 33.6042 22.9914C33.6139 23.1947 33.6869 23.3895 33.8125 23.547C34.01 23.7845 34.2505 23.9805 34.5208 24.1239C35 24.3803 35.5 24.6154 36 24.8291C37.1256 25.2177 38.2025 25.7413 39.2083 26.3889C39.8925 26.8301 40.4583 27.4398 40.8542 28.1624C41.189 28.8441 41.3536 29.6003 41.3333 30.3632C41.3502 31.3732 41.0668 32.3645 40.5208 33.2051C39.9397 34.0581 39.1289 34.7189 38.1875 35.1068C37.1667 35.5556 35.9167 35.7906 34.4167 35.7906C33.4656 35.7945 32.5165 35.7015 31.5833 35.5128C30.8486 35.3826 30.134 35.1527 29.4583 34.8291C29.3857 34.7917 29.3253 34.7333 29.2846 34.6612C29.2439 34.5891 29.2246 34.5063 29.2292 34.4231V30.7051C29.2274 30.6686 29.234 30.6322 29.2485 30.5988C29.2629 30.5654 29.2849 30.5359 29.3125 30.5128C29.3419 30.4953 29.3759 30.4879 29.4097 30.4917C29.4435 30.4956 29.4751 30.5105 29.5 30.5342C30.3025 31.0194 31.1742 31.3727 32.0833 31.5812C32.886 31.7954 33.7122 31.9031 34.5417 31.9017C35.3333 31.9017 35.8958 31.7949 36.2708 31.6026C36.4381 31.5233 36.5799 31.3968 36.6795 31.2378C36.7791 31.0789 36.8325 30.8941 36.8333 30.7051C36.8333 30.406 36.6667 30.1282 36.3333 29.8504C36 29.5726 35.3125 29.2521 34.2917 28.8461C33.2444 28.4677 32.2499 27.9505 31.3333 27.3077C30.6805 26.8305 30.1396 26.21 29.75 25.4914C29.4175 24.8166 29.2529 24.0679 29.2708 23.312C29.2739 22.4002 29.5188 21.5065 29.9792 20.7265C30.5084 19.8687 31.268 19.1861 32.1667 18.7607C33.1458 18.2479 34.375 18.0128 35.8542 18.0128C36.7187 18.0131 37.582 18.0773 38.4375 18.2051C39.0526 18.2905 39.6546 18.4556 40.2292 18.6966C40.3207 18.7299 40.3956 18.799 40.4375 18.8889C40.4615 18.9723 40.4755 19.0584 40.4792 19.1453V22.6282C40.4795 22.6697 40.4702 22.7107 40.4521 22.7479C40.434 22.785 40.4076 22.8172 40.375 22.8419C40.2538 22.8866 40.1212 22.8866 40 22.8419Z" fill="#1B1B1B"/>
</g>
<defs>
<clipPath id="clip0_135_730">
<rect width="50" height="50" fill="white"/>
</clipPath>
</defs>
</svg>
