<svg width="90" height="90" viewBox="0 0 90 90" fill="none" xmlns="http://www.w3.org/2000/svg">
<circle cx="45" cy="45" r="45" fill="#2563EB"/>
<path d="M27.401 57.8906V30.428C27.401 29.5312 27.7373 28.7466 28.4099 28.074C29.0824 27.4015 29.8671 27.0652 30.7638 27.0652H63.8311C64.3168 27.0652 64.7185 27.224 65.036 27.5416C65.3536 27.8592 65.5124 28.2608 65.5124 28.7466C65.5124 29.2323 65.3536 29.634 65.036 29.9516C64.7185 30.2692 64.3168 30.428 63.8311 30.428H30.7638V57.8906H41.3565C42.0664 57.8906 42.6643 58.1335 43.15 58.6192C43.6357 59.1049 43.8786 59.7028 43.8786 60.4127C43.8786 61.1226 43.6357 61.7204 43.15 62.2061C42.6643 62.6919 42.0664 62.9347 41.3565 62.9347H25.1031C24.3932 62.9347 23.7954 62.6919 23.3097 62.2061C22.8239 61.7204 22.5811 61.1226 22.5811 60.4127C22.5811 59.7028 22.8239 59.1049 23.3097 58.6192C23.7954 58.1335 24.3932 57.8906 25.1031 57.8906H27.401ZM49.4272 62.9347C48.8294 62.9347 48.3156 62.7106 47.8859 62.2622C47.4562 61.8138 47.2414 61.216 47.2414 60.4687V35.9765C47.2414 35.3787 47.4562 34.8649 47.8859 34.4353C48.3156 34.0056 48.8294 33.7907 49.4272 33.7907H64.6717C65.419 33.7907 66.0636 34.0056 66.6053 34.4353C67.1471 34.8649 67.418 35.3787 67.418 35.9765V60.4687C67.418 61.216 67.1471 61.8138 66.6053 62.2622C66.0636 62.7106 65.419 62.9347 64.6717 62.9347H49.4272ZM50.6042 57.8906H64.0552V37.1535H50.6042V57.8906Z" fill="#F9FAFB"/>
</svg>
