<svg width="91" height="90" viewBox="0 0 91 90" fill="none" xmlns="http://www.w3.org/2000/svg">
<circle cx="45" cy="45" r="45" fill="#2563EB"/>
<path d="M27.401 57.8906V30.428C27.401 29.5312 27.7373 28.7466 28.4099 28.074C29.0824 27.4015 29.8671 27.0652 30.7638 27.0652H63.8311C64.3168 27.0652 64.7185 27.224 65.036 27.5416C65.3536 27.8592 65.5124 28.2608 65.5124 28.7466C65.5124 29.2323 65.3536 29.634 65.036 29.9516C64.7185 30.2692 64.3168 30.428 63.8311 30.428H30.7638V57.8906H41.3565C42.0664 57.8906 42.6643 58.1335 43.15 58.6192C43.6357 59.1049 43.8786 59.7028 43.8786 60.4127C43.8786 61.1226 43.6357 61.7204 43.15 62.2061C42.6643 62.6919 42.0664 62.9347 41.3565 62.9347H25.1031C24.3932 62.9347 23.7954 62.6919 23.3097 62.2061C22.8239 61.7204 22.5811 61.1226 22.5811 60.4127C22.5811 59.7028 22.8239 59.1049 23.3097 58.6192C23.7954 58.1335 24.3932 57.8906 25.1031 57.8906H27.401ZM49.4272 62.9347C48.8294 62.9347 48.3156 62.7106 47.8859 62.2622C47.4562 61.8138 47.2414 61.216 47.2414 60.4687V35.9765C47.2414 35.3787 47.4562 34.8649 47.8859 34.4353C48.3156 34.0056 48.8294 33.7907 49.4272 33.7907H64.6717C65.419 33.7907 66.0636 34.0056 66.6053 34.4353C67.1471 34.8649 67.418 35.3787 67.418 35.9765V60.4687C67.418 61.216 67.1471 61.8138 66.6053 62.2622C66.0636 62.7106 65.419 62.9347 64.6717 62.9347H49.4272ZM50.6042 57.8906H64.0552V37.1535H50.6042V57.8906Z" fill="#F9FAFB"/>
<circle cx="46" cy="45" r="45" fill="#2563EB"/>
<path d="M27.2912 65.1765V56.4333L38.1641 45.5604L28.1319 35.4721C27.7956 35.1358 27.5434 34.7621 27.3753 34.3511C27.2071 33.9401 27.123 33.5291 27.123 33.1181C27.123 32.7071 27.2071 32.2961 27.3753 31.8851C27.5434 31.4741 27.7956 31.1005 28.1319 30.7642L33.176 25.664C33.5123 25.3277 33.886 25.0755 34.297 24.9073C34.708 24.7392 35.119 24.6551 35.53 24.6551C35.941 24.6551 36.3613 24.7392 36.791 24.9073C37.2207 25.0755 37.6037 25.3277 37.94 25.664L48.0283 35.7523L59.0694 24.7112C59.2562 24.5244 59.443 24.4029 59.6298 24.3469C59.8167 24.2908 60.0222 24.2628 60.2463 24.2628C60.4705 24.2628 60.676 24.2908 60.8629 24.3469C61.0497 24.4029 61.2365 24.5244 61.4233 24.7112L67.7565 31.0444C67.9434 31.2312 68.0648 31.418 68.1208 31.6049C68.1769 31.7917 68.2049 31.9972 68.2049 32.2214C68.2049 32.4456 68.1769 32.6511 68.1208 32.8379C68.0648 33.0247 67.9434 33.2115 67.7565 33.3983L56.7154 44.4394L66.8038 54.5278C67.14 54.864 67.3922 55.247 67.5604 55.6767C67.7285 56.1064 67.8126 56.5267 67.8126 56.9378C67.8126 57.3488 67.7285 57.7598 67.5604 58.1708C67.3922 58.5818 67.14 58.9554 66.8038 59.2917L61.7596 64.2798C61.4233 64.6161 61.0497 64.8683 60.6387 65.0364C60.2277 65.2046 59.8167 65.2886 59.4057 65.2886C58.9946 65.2886 58.5836 65.2046 58.1726 65.0364C57.7616 64.8683 57.388 64.6161 57.0517 64.2798L46.9634 54.2475L36.0344 65.1765H27.2912ZM40.5741 43.1504L45.6183 38.1062L41.5269 34.0149L38.8367 36.7051L36.4828 34.3511L39.173 31.6609L35.586 28.074L30.5419 33.1181L40.5741 43.1504ZM59.2936 61.9259L64.3377 56.8817L60.7508 53.2947L58.0605 55.985L55.7066 53.631L58.3968 50.9408L54.3055 46.8494L49.2613 51.8936L59.2936 61.9259ZM30.654 61.8138H34.5772L57.8364 38.5546L53.9131 34.6314L30.654 57.8905V61.8138ZM60.1903 36.2007L64.1135 32.2774L60.1903 28.3542L56.2671 32.2774L60.1903 36.2007Z" fill="#F9FAFB"/>
</svg>
