<svg width="50" height="50" viewBox="0 0 50 50" fill="none" xmlns="http://www.w3.org/2000/svg">
<rect width="50" height="50" rx="5" fill="#2563EB"/>
<path d="M21.8438 32.7917L20.75 37.1667L19.2917 38.625H30.9583L29.5 37.1667L28.4063 32.7917M12 26.9583H38.25M14.9167 32.7917H35.3333C36.1069 32.7917 36.8487 32.4844 37.3957 31.9374C37.9427 31.3904 38.25 30.6485 38.25 29.875V15.2917C38.25 14.5181 37.9427 13.7763 37.3957 13.2293C36.8487 12.6823 36.1069 12.375 35.3333 12.375H14.9167C14.1431 12.375 13.4013 12.6823 12.8543 13.2293C12.3073 13.7763 12 14.5181 12 15.2917V29.875C12 30.6485 12.3073 31.3904 12.8543 31.9374C13.4013 32.4844 14.1431 32.7917 14.9167 32.7917Z" stroke="#F9FAFB" stroke-width="3" stroke-linecap="round" stroke-linejoin="round"/>
</svg>
