<svg width="50" height="50" viewBox="0 0 50 50" fill="none" xmlns="http://www.w3.org/2000/svg">
<path d="M8.85417 4.03008e-06H41.1458C42.3089 -0.00112026 43.4607 0.233004 44.5355 0.688979C45.6102 1.14495 46.5867 1.81383 47.4091 2.65732C48.2315 3.50081 48.8837 4.50236 49.3283 5.60465C49.7728 6.70693 50.0011 7.88832 50 9.0812V40.9188C50.0011 42.1117 49.7728 43.2931 49.3283 44.3953C48.8837 45.4976 48.2315 46.4992 47.4091 47.3427C46.5867 48.1862 45.6102 48.855 44.5355 49.311C43.4607 49.767 42.3089 50.0011 41.1458 50H8.85417C7.69112 50.0011 6.53926 49.767 5.46453 49.311C4.3898 48.855 3.41329 48.1862 2.59088 47.3427C1.76848 46.4992 1.11633 45.4976 0.671755 44.3953C0.227179 43.2931 -0.00109226 42.1117 3.92932e-06 40.9188V9.0812C-0.00109226 7.88832 0.227179 6.70693 0.671755 5.60465C1.11633 4.50236 1.76848 3.50081 2.59088 2.65732C3.41329 1.81383 4.3898 1.14495 5.46453 0.688979C6.53926 0.233004 7.69112 -0.00112026 8.85417 4.03008e-06Z" fill="#F9FAFB"/>
<g clip-path="url(#clip0_135_790)">
<path fill-rule="evenodd" clip-rule="evenodd" d="M16.1288 21.4516C17.3114 16.7206 20.2687 14.3549 24.9997 14.3549C32.0965 14.3549 32.9836 19.6774 36.532 20.5645C38.8978 21.1561 40.9675 20.269 42.7417 17.9032C41.5591 22.6342 38.6017 25 33.8707 25C26.7739 25 25.8868 19.6774 22.3385 18.7903C19.9727 18.1988 17.903 19.0859 16.1288 21.4516ZM7.25781 32.0968C8.44042 27.3658 11.3978 25 16.1288 25C23.2256 25 24.1126 30.3226 27.661 31.2097C30.0268 31.8013 32.0965 30.9142 33.8707 28.5484C32.6881 33.2794 29.7307 35.6452 24.9997 35.6452C17.903 35.6452 17.0159 30.3226 13.4675 29.4355C11.1017 28.8439 9.03201 29.731 7.25781 32.0968Z" fill="#1B1B1B"/>
</g>
<defs>
<clipPath id="clip0_135_790">
<rect width="35.4839" height="35.4839" fill="white" transform="translate(7.25781 7.25806)"/>
</clipPath>
</defs>
</svg>
