<svg width="50" height="50" viewBox="0 0 50 50" fill="none" xmlns="http://www.w3.org/2000/svg">
<path d="M8.85417 4.03008e-06H41.1458C42.3089 -0.00112026 43.4607 0.233004 44.5355 0.688979C45.6102 1.14495 46.5867 1.81383 47.4091 2.65732C48.2315 3.50081 48.8837 4.50236 49.3283 5.60465C49.7728 6.70693 50.0011 7.88832 50 9.0812V40.9188C50.0011 42.1117 49.7728 43.2931 49.3283 44.3953C48.8837 45.4976 48.2315 46.4992 47.4091 47.3427C46.5867 48.1862 45.6102 48.855 44.5355 49.311C43.4607 49.767 42.3089 50.0011 41.1458 50H8.85417C7.69112 50.0011 6.53926 49.767 5.46453 49.311C4.3898 48.855 3.41329 48.1862 2.59088 47.3427C1.76848 46.4992 1.11633 45.4976 0.671755 44.3953C0.227179 43.2931 -0.00109226 42.1117 3.92932e-06 40.9188V9.0812C-0.00109226 7.88832 0.227179 6.70693 0.671755 5.60465C1.11633 4.50236 1.76848 3.50081 2.59088 2.65732C3.41329 1.81383 4.3898 1.14495 5.46453 0.688979C6.53926 0.233004 7.69112 -0.00112026 8.85417 4.03008e-06Z" fill="#F9FAFB"/>
<g clip-path="url(#clip0_135_743)">
<path d="M9.03414 20.6906C9.03414 20.6906 8.23208 20.1155 9.19401 19.3491L11.4363 17.3558C11.4363 17.3558 12.0771 16.6851 12.7559 17.2696L33.4429 32.8389V40.3044C33.4429 40.3044 33.4334 41.4761 31.9201 41.3468L9.03414 20.6906Z" fill="#1B1B1B"/>
<path d="M14.366 25.5028L9.03331 30.3217C9.03331 30.3217 8.48595 30.7271 9.03331 31.4504L11.5086 33.6888C11.5086 33.6888 12.0966 34.3164 12.9651 33.6026L18.6188 29.3426L14.366 25.5028Z" fill="#1B1B1B"/>
<path d="M23.7269 25.5432L33.5061 18.1208L33.4424 10.6945C33.4424 10.6945 33.0251 9.07422 31.6324 9.91733L18.6191 21.6899L23.7269 25.5432Z" fill="#1B1B1B"/>
<path d="M31.9194 41.3576C32.4871 41.9354 33.1754 41.7468 33.1754 41.7468L40.7963 38.0134C41.7718 37.3521 41.635 36.5319 41.635 36.5319V14.2406C41.635 13.2615 40.6256 12.9221 40.6256 12.9221L34.0208 9.75704C32.5765 8.87083 31.6309 9.91731 31.6309 9.91731C31.6309 9.91731 32.8475 9.04726 33.4409 10.6944V40.1683C33.4409 40.3703 33.3976 40.5697 33.3109 40.7501C33.1374 41.099 32.7594 41.4249 31.8544 41.2875L31.9194 41.3576Z" fill="#1B1B1B"/>
</g>
<defs>
<clipPath id="clip0_135_743">
<rect width="33.871" height="33.0645" fill="white" transform="translate(8.06641 8.87085)"/>
</clipPath>
</defs>
</svg>
