<svg width="180" height="32" fill="none" xmlns="http://www.w3.org/2000/svg">
  <path fill="#27272a" d="M59.267 27.642h3.718L66.087 16.7l3.126 10.94h3.718l4.642-16.576h-3.434l-3.173 12.29-3.481-12.29H64.69l-3.457 12.29-3.174-12.29h-3.433l4.641 16.577zM83.551 27.973c3.481 0 6.276-2.723 6.276-6.252 0-3.528-2.794-6.252-6.276-6.252-3.48 0-6.252 2.724-6.252 6.252 0 3.529 2.771 6.252 6.252 6.252zm0-2.984c-1.8 0-3.197-1.35-3.197-3.268 0-1.918 1.398-3.268 3.197-3.268 1.824 0 3.221 1.35 3.221 3.268 0 1.918-1.397 3.268-3.22 3.268zM95.031 17.837v-2.036h-3.055v11.84h3.055v-5.66c0-2.486 2.013-3.196 3.6-3.007v-3.41c-1.492 0-2.984.663-3.6 2.273zM111.334 27.642l-4.902-5.992 4.76-5.85h-3.647l-4.073 5.21v-9.946h-3.055v16.578h3.055v-5.376l4.31 5.376h3.552z"/>
  <path fill="#4f46e5" fill-rule="evenodd" clip-rule="evenodd" d="M42.342 12.45l-7.596-4.385v20.371h8.88v1.974H.21v-1.974h3.947v-12.55l-3.678.92L0 14.89l20.81-5.202h3.08a9.422 9.422 0 00-.67 2.525l-.477 3.922 5.096-2.942v15.243h4.933V8.066l-7.594 4.384a7.402 7.402 0 012.531-4.735h-4.064a7.39 7.39 0 016.557-2.933l-5.517-3.186a7.388 7.388 0 016.607.397 7.366 7.366 0 012.468 2.316 7.363 7.363 0 012.467-2.316 7.39 7.39 0 016.608-.397l-5.518 3.186a7.389 7.389 0 016.558 2.933h-4.066a7.399 7.399 0 012.533 4.735zm-18.45 6.119h-5.92v9.867h5.92v-9.867zm-10.854 1.973a1.974 1.974 0 11-3.947 0 1.974 1.974 0 013.947 0z"/>
  <path fill="#4f46e5" d="M118.495 27.973c2.321 0 4.334-1.231 5.352-3.078l-2.652-1.516c-.474.97-1.492 1.563-2.723 1.563-1.824 0-3.174-1.35-3.174-3.22 0-1.895 1.35-3.245 3.174-3.245 1.207 0 2.226.616 2.699 1.587l2.629-1.54c-.971-1.823-2.984-3.055-5.305-3.055-3.599 0-6.252 2.724-6.252 6.252 0 3.529 2.653 6.252 6.252 6.252zM134.277 15.8v1.398c-.853-1.066-2.131-1.729-3.86-1.729-3.15 0-5.755 2.724-5.755 6.252 0 3.529 2.605 6.252 5.755 6.252 1.729 0 3.007-.663 3.86-1.729v1.398h3.055V15.8h-3.055zm-3.292 9.26c-1.871 0-3.268-1.35-3.268-3.339 0-1.989 1.397-3.339 3.268-3.339 1.895 0 3.292 1.35 3.292 3.34 0 1.988-1.397 3.338-3.292 3.338zM146.875 18.737v-2.936h-2.676v-3.316l-3.055.924v2.392h-2.06v2.936h2.06v4.926c0 3.197 1.445 4.452 5.731 3.979V24.87c-1.752.095-2.676.071-2.676-1.208v-4.926h2.676zM150.545 14.38c1.041 0 1.894-.853 1.894-1.87 0-1.02-.853-1.895-1.894-1.895-1.019 0-1.871.876-1.871 1.894a1.89 1.89 0 001.871 1.871zm-1.516 13.262h3.055V15.8h-3.055v11.84zM160.516 27.973c3.481 0 6.276-2.723 6.276-6.252 0-3.528-2.795-6.252-6.276-6.252s-6.252 2.724-6.252 6.252c0 3.529 2.771 6.252 6.252 6.252zm0-2.984c-1.8 0-3.197-1.35-3.197-3.268 0-1.918 1.397-3.268 3.197-3.268 1.824 0 3.221 1.35 3.221 3.268 0 1.919-1.397 3.268-3.221 3.268zM175.524 15.47c-1.586 0-2.818.591-3.528 1.657v-1.326h-3.055v11.84h3.055v-6.393c0-2.06 1.113-2.937 2.605-2.937 1.373 0 2.344.829 2.344 2.44v6.89H180v-7.27c0-3.15-1.966-4.902-4.476-4.902z"/>
</svg>
